<?xml version="1.0" encoding="UTF-8" standalone="no" ?>
<!DOCTYPE svg PUBLIC "-//W3C//DTD SVG 1.1//EN" "http://www.w3.org/Graphics/SVG/1.1/DTD/svg11.dtd">
<svg xmlns="http://www.w3.org/2000/svg" xmlns:xlink="http://www.w3.org/1999/xlink" version="1.1" width="1080" height="1080" viewBox="0 0 1080 1080" xml:space="preserve">
<desc>Created with Fabric.js 5.2.4</desc>
<defs>
</defs>
<g transform="matrix(1 0 0 1 540 540)" id="fa20708a-a94d-48a2-97c3-cbc8de039206"  >
<rect style="stroke: none; stroke-width: 1; stroke-dasharray: none; stroke-linecap: butt; stroke-dashoffset: 0; stroke-linejoin: miter; stroke-miterlimit: 4; fill: rgb(255,255,255); fill-rule: nonzero; opacity: 1; visibility: hidden;" vector-effect="non-scaling-stroke"  x="-540" y="-540" rx="0" ry="0" width="1080" height="1080" />
</g>
<g transform="matrix(1 0 0 1 540 540)" id="e39c119e-c887-4fc9-a873-84d14c694cac"  >
</g>
<g transform="matrix(54 0 0 54 540 540)"  >
<path style="stroke: rgb(0,0,0); stroke-width: 0; stroke-dasharray: none; stroke-linecap: butt; stroke-dashoffset: 0; stroke-linejoin: miter; stroke-miterlimit: 4; fill: rgb(0,0,0); fill-rule: nonzero; opacity: 1;"  transform=" translate(-10, -10)" d="M 9 6 C 9 7.656854249492381 7.656854249492381 9 6 9 C 4.343145750507619 9 3 7.656854249492381 3 6 C 3 4.343145750507619 4.343145750507619 3 6 3 C 7.656854249492381 3 9 4.3431457505076185 9 5.999999999999999 z M 17 6 C 17 7.656854249492381 15.65685424949238 9 14 9 C 12.34314575050762 9 11 7.656854249492381 11 6 C 11 4.343145750507619 12.34314575050762 3 14 3 C 15.65685424949238 3 17 4.3431457505076185 17 5.999999999999999 z M 12.93 17 C 12.975999999999999 16.673 13 16.34 13 16 C 13.00231460961301 14.4288582988609 12.473732872214306 12.903019016903306 11.499999999999998 11.669999999999998 C 13.046985734013102 10.776847369266504 14.952947921168919 10.776835264159526 16.499945000201645 11.66996824445442 C 18.04694207923437 12.563101224749314 18.999954621419004 14.213694740262177 19 16 L 19 17 L 12.93 17 z M 6 11 C 8.761423749153966 11 11 13.238576250846032 11 16 L 11 17 L 1 17 L 1 16 C 1 13.238576250846034 3.238576250846033 11 6 11 z" stroke-linecap="round" />
</g>
<g transform="matrix(54 0 0 54 540 540)"  >
<path style="stroke: rgb(0,0,0); stroke-width: 0; stroke-dasharray: none; stroke-linecap: butt; stroke-dashoffset: 0; stroke-linejoin: miter; stroke-miterlimit: 4; fill: rgb(0,0,0); fill-rule: nonzero; opacity: 1;"  transform=" translate(-10, -10)" d="M 9 6 C 9 7.656854249492381 7.656854249492381 9 6 9 C 4.343145750507619 9 3 7.656854249492381 3 6 C 3 4.343145750507619 4.343145750507619 3 6 3 C 7.656854249492381 3 9 4.3431457505076185 9 5.999999999999999 z M 17 6 C 17 7.656854249492381 15.65685424949238 9 14 9 C 12.34314575050762 9 11 7.656854249492381 11 6 C 11 4.343145750507619 12.34314575050762 3 14 3 C 15.65685424949238 3 17 4.3431457505076185 17 5.999999999999999 z M 12.93 17 C 12.975999999999999 16.673 13 16.34 13 16 C 13.00231460961301 14.4288582988609 12.473732872214306 12.903019016903306 11.499999999999998 11.669999999999998 C 13.046985734013102 10.776847369266504 14.952947921168919 10.776835264159526 16.499945000201645 11.66996824445442 C 18.04694207923437 12.563101224749314 18.999954621419004 14.213694740262177 19 16 L 19 17 L 12.93 17 z M 6 11 C 8.761423749153966 11 11 13.238576250846032 11 16 L 11 17 L 1 17 L 1 16 C 1 13.238576250846034 3.238576250846033 11 6 11 z" stroke-linecap="round" />
</g>
<g transform="matrix(54 0 0 54 540 540)"  >
<path style="stroke: rgb(0,0,0); stroke-width: 0; stroke-dasharray: none; stroke-linecap: butt; stroke-dashoffset: 0; stroke-linejoin: miter; stroke-miterlimit: 4; fill: rgb(0,0,0); fill-rule: nonzero; opacity: 1;"  transform=" translate(-10, -10)" d="M 9 6 C 9 7.656854249492381 7.656854249492381 9 6 9 C 4.343145750507619 9 3 7.656854249492381 3 6 C 3 4.343145750507619 4.343145750507619 3 6 3 C 7.656854249492381 3 9 4.3431457505076185 9 5.999999999999999 z M 17 6 C 17 7.656854249492381 15.65685424949238 9 14 9 C 12.34314575050762 9 11 7.656854249492381 11 6 C 11 4.343145750507619 12.34314575050762 3 14 3 C 15.65685424949238 3 17 4.3431457505076185 17 5.999999999999999 z M 12.93 17 C 12.975999999999999 16.673 13 16.34 13 16 C 13.00231460961301 14.4288582988609 12.473732872214306 12.903019016903306 11.499999999999998 11.669999999999998 C 13.046985734013102 10.776847369266504 14.952947921168919 10.776835264159526 16.499945000201645 11.66996824445442 C 18.04694207923437 12.563101224749314 18.999954621419004 14.213694740262177 19 16 L 19 17 L 12.93 17 z M 6 11 C 8.761423749153966 11 11 13.238576250846032 11 16 L 11 17 L 1 17 L 1 16 C 1 13.238576250846034 3.238576250846033 11 6 11 z" stroke-linecap="round" />
</g>
<g transform="matrix(54 0 0 54 540 540)"  >
<path style="stroke: rgb(0,0,0); stroke-width: 0; stroke-dasharray: none; stroke-linecap: butt; stroke-dashoffset: 0; stroke-linejoin: miter; stroke-miterlimit: 4; fill: rgb(0,0,0); fill-rule: nonzero; opacity: 1;"  transform=" translate(-10, -10)" d="M 9 6 C 9 7.656854249492381 7.656854249492381 9 6 9 C 4.343145750507619 9 3 7.656854249492381 3 6 C 3 4.343145750507619 4.343145750507619 3 6 3 C 7.656854249492381 3 9 4.3431457505076185 9 5.999999999999999 z M 17 6 C 17 7.656854249492381 15.65685424949238 9 14 9 C 12.34314575050762 9 11 7.656854249492381 11 6 C 11 4.343145750507619 12.34314575050762 3 14 3 C 15.65685424949238 3 17 4.3431457505076185 17 5.999999999999999 z M 12.93 17 C 12.975999999999999 16.673 13 16.34 13 16 C 13.00231460961301 14.4288582988609 12.473732872214306 12.903019016903306 11.499999999999998 11.669999999999998 C 13.046985734013102 10.776847369266504 14.952947921168919 10.776835264159526 16.499945000201645 11.66996824445442 C 18.04694207923437 12.563101224749314 18.999954621419004 14.213694740262177 19 16 L 19 17 L 12.93 17 z M 6 11 C 8.761423749153966 11 11 13.238576250846032 11 16 L 11 17 L 1 17 L 1 16 C 1 13.238576250846034 3.238576250846033 11 6 11 z" stroke-linecap="round" />
</g>
</svg>